{
  "accessors": [
    {
      "bufferView": 2,
      "componentType": 5126,
      "count": 65533,
      "max": [
        2.7256619930267334,
        2.5291359424591064,
        5.171975135803223
      ],
      "min": [
        -2.9910759925842285,
        -2.3499879837036133,
        -5.566781044006348
      ],
      "type": "VEC3"
    },
    {
      "bufferView": 2,
      "byteOffset": 786396,
      "componentType": 5126,
      "count": 65533,
      "max": [
        0.9996499419212341,
        0.9999911785125732,
        0.9999920129776001
      ],
      "min": [
        -0.9996845126152039,
        -0.9999756813049316,
        -0.9998706579208374
      ],
      "type": "VEC3"
    },
    {
      "bufferView": 1,
      "componentType": 5126,
      "count": 65533,
      "max": [
        0.9932000041007996,
        0.9994999766349792
      ],
      "min": [
        0.002099999925121665,
        0.004999999888241291
      ],
      "type": "VEC2"
    },
    {
      "bufferView": 0,
      "componentType": 5125,
      "count": 65547,
      "type": "SCALAR"
    },
    {
      "bufferView": 2,
      "byteOffset": 1572792,
      "componentType": 5126,
      "count": 65534,
      "max": [
        6.946197986602783,
        2.407536029815674,
        6.307435035705566
      ],
      "min": [
        -3.2505619525909424,
        -2.3262109756469727,
        -5.572640895843506
      ],
      "type": "VEC3"
    },
    {
      "bufferView": 2,
      "byteOffset": 2359200,
      "componentType": 5126,
      "count": 65534,
      "max": [
        0.9999819993972778,
        0.9999761581420898,
        0.9999165534973145
      ],
      "min": [
        -0.9995893836021423,
        -0.9999659061431885,
        -0.9997683167457581
      ],
      "type": "VEC3"
    },
    {
      "bufferView": 1,
      "byteOffset": 524264,
      "componentType": 5126,
      "count": 65534,
      "max": [
        0.9962000250816345,
        0.9994000196456909
      ],
      "min": [
        0.0026000000070780516,
        0.0038999998942017555
      ],
      "type": "VEC2"
    },
    {
      "bufferView": 0,
      "byteOffset": 262188,
      "componentType": 5125,
      "count": 65544,
      "type": "SCALAR"
    },
    {
      "bufferView": 2,
      "byteOffset": 3145608,
      "componentType": 5126,
      "count": 65534,
      "max": [
        -0.5847730040550232,
        2.0891880989074707,
        6.492204189300537
      ],
      "min": [
        -4.921839237213135,
        -2.144260883331299,
        -5.513589859008789
      ],
      "type": "VEC3"
    },
    {
      "bufferView": 2,
      "byteOffset": 3932016,
      "componentType": 5126,
      "count": 65534,
      "max": [
        0.9999473094940186,
        0.9999988079071045,
        0.9999125003814697
      ],
      "min": [
        -0.9999994039535522,
        -0.9999549388885498,
        -0.9994726777076721
      ],
      "type": "VEC3"
    },
    {
      "bufferView": 1,
      "byteOffset": 1048536,
      "componentType": 5126,
      "count": 65534,
      "max": [
        0.9085000157356262,
        0.9279999732971191
      ],
      "min": [
        0.004999999888241291,
        0.0038999998942017555
      ],
      "type": "VEC2"
    },
    {
      "bufferView": 0,
      "byteOffset": 524364,
      "componentType": 5125,
      "count": 65544,
      "type": "SCALAR"
    },
    {
      "bufferView": 2,
      "byteOffset": 4718424,
      "componentType": 5126,
      "count": 65533,
      "max": [
        2.5919480323791504,
        2.192349910736084,
        6.427027225494385
      ],
      "min": [
        -4.1579179763793945,
        -4.295124053955078,
        -5.381271839141846
      ],
      "type": "VEC3"
    },
    {
      "bufferView": 2,
      "byteOffset": 5504820,
      "componentType": 5126,
      "count": 65533,
      "max": [
        0.9999622106552124,
        0.9999140501022339,
        0.9999537467956543
      ],
      "min": [
        -0.9999651908874512,
        -0.9999730587005615,
        -0.9998724460601807
      ],
      "type": "VEC3"
    },
    {
      "bufferView": 1,
      "byteOffset": 1572808,
      "componentType": 5126,
      "count": 65533,
      "max": [
        0.9915000200271606,
        0.9991999864578247
      ],
      "min": [
        0.0024999999441206455,
        0.004000000189989805
      ],
      "type": "VEC2"
    },
    {
      "bufferView": 0,
      "byteOffset": 786540,
      "componentType": 5125,
      "count": 65547,
      "type": "SCALAR"
    },
    {
      "bufferView": 2,
      "byteOffset": 6291216,
      "componentType": 5126,
      "count": 31900,
      "max": [
        6.047842979431152,
        2.27742600440979,
        1.373960018157959
      ],
      "min": [
        0.4144980013370514,
        -1.903480052947998,
        -5.572640895843506
      ],
      "type": "VEC3"
    },
    {
      "bufferView": 2,
      "byteOffset": 6674016,
      "componentType": 5126,
      "count": 31900,
      "max": [
        0.9990682005882263,
        0.9999922513961792,
        0.9999837875366211
      ],
      "min": [
        -0.9995142817497253,
        -0.9999957084655762,
        -0.9999821186065674
      ],
      "type": "VEC3"
    },
    {
      "bufferView": 1,
      "byteOffset": 2097072,
      "componentType": 5126,
      "count": 31900,
      "max": [
        0.9916999936103821,
        0.9958999752998352
      ],
      "min": [
        0.007199999876320362,
        0.008200000040233135
      ],
      "type": "VEC2"
    },
    {
      "bufferView": 0,
      "byteOffset": 1048728,
      "componentType": 5125,
      "count": 31908,
      "type": "SCALAR"
    }
  ],
  "asset": {
    "extras": {
      "author": "urheilumuseo (https://sketchfab.com/urheilumuseo)",
      "license": "CC-BY-4.0 (http://creativecommons.org/licenses/by/4.0/)",
      "source": "https://sketchfab.com/3d-models/jari-kurris-ice-hockey-skate-c5961b09dbf24f56a2752a04b0517af4",
      "title": "Jari Kurri's Ice Hockey Skate"
    },
    "generator": "Sketchfab-11.25.0",
    "version": "2.0"
  },
  "bufferViews": [
    {
      "buffer": 0,
      "byteLength": 1176360,
      "name": "floatBufferViews",
      "target": 34963
    },
    {
      "buffer": 0,
      "byteLength": 2352272,
      "byteOffset": 1176360,
      "byteStride": 8,
      "name": "floatBufferViews",
      "target": 34962
    },
    {
      "buffer": 0,
      "byteLength": 7056816,
      "byteOffset": 3528632,
      "byteStride": 12,
      "name": "floatBufferViews",
      "target": 34962
    }
  ],
  "buffers": [
    {
      "byteLength": 10585448,
      "uri": "scene.bin"
    }
  ],
  "images": [
    {
      "uri": "textures/jari_kurri_luistin_baseColor.jpeg"
    }
  ],
  "materials": [
    {
      "doubleSided": true,
      "name": "jari_kurri_luistin",
      "pbrMetallicRoughness": {
        "baseColorTexture": {
          "index": 0
        },
        "metallicFactor": 0.0,
        "roughnessFactor": 0.8221720589961077
      }
    }
  ],
  "meshes": [
    {
      "name": "Object_0",
      "primitives": [
        {
          "attributes": {
            "NORMAL": 1,
            "POSITION": 0,
            "TEXCOORD_0": 2
          },
          "indices": 3,
          "material": 0,
          "mode": 4
        }
      ]
    },
    {
      "name": "Object_1",
      "primitives": [
        {
          "attributes": {
            "NORMAL": 5,
            "POSITION": 4,
            "TEXCOORD_0": 6
          },
          "indices": 7,
          "material": 0,
          "mode": 4
        }
      ]
    },
    {
      "name": "Object_2",
      "primitives": [
        {
          "attributes": {
            "NORMAL": 9,
            "POSITION": 8,
            "TEXCOORD_0": 10
          },
          "indices": 11,
          "material": 0,
          "mode": 4
        }
      ]
    },
    {
      "name": "Object_3",
      "primitives": [
        {
          "attributes": {
            "NORMAL": 13,
            "POSITION": 12,
            "TEXCOORD_0": 14
          },
          "indices": 15,
          "material": 0,
          "mode": 4
        }
      ]
    },
    {
      "name": "Object_4",
      "primitives": [
        {
          "attributes": {
            "NORMAL": 17,
            "POSITION": 16,
            "TEXCOORD_0": 18
          },
          "indices": 19,
          "material": 0,
          "mode": 4
        }
      ]
    }
  ],
  "nodes": [
    {
      "children": [
        1
      ],
      "matrix": [
        1.0,
        0.0,
        0.0,
        0.0,
        0.0,
        2.220446049250313e-16,
        -1.0,
        0.0,
        0.0,
        1.0,
        2.220446049250313e-16,
        0.0,
        0.0,
        0.0,
        0.0,
        1.0
      ],
      "name": "Sketchfab_model"
    },
    {
      "children": [
        2,
        3,
        4,
        5,
        6
      ],
      "name": "3050_4ab_Jari_kurrin_luistin.obj.cleaner.materialmerger.gles"
    },
    {
      "mesh": 0,
      "name": "Object_2"
    },
    {
      "mesh": 1,
      "name": "Object_3"
    },
    {
      "mesh": 2,
      "name": "Object_4"
    },
    {
      "mesh": 3,
      "name": "Object_5"
    },
    {
      "mesh": 4,
      "name": "Object_6"
    }
  ],
  "samplers": [
    {
      "magFilter": 9729,
      "minFilter": 9987,
      "wrapS": 10497,
      "wrapT": 10497
    }
  ],
  "scene": 0,
  "scenes": [
    {
      "name": "Sketchfab_Scene",
      "nodes": [
        0
      ]
    }
  ],
  "textures": [
    {
      "sampler": 0,
      "source": 0
    }
  ]
}
