{
  "accessors": [
    {
      "bufferView": 2,
      "componentType": 5126,
      "count": 1894,
      "max": [
        0.48553699254989624,
        0.47541698813438416,
        0.46628099679946899
      ],
      "min": [
        -0.53380298614501953,
        -0.47117799520492554,
        -1.1349500417709351
      ],
      "type": "VEC3"
    },
    {
      "bufferView": 2,
      "byteOffset": 22728,
      "componentType": 5126,
      "count": 1894,
      "max": [
        0.99901849031448364,
        0.99985623359680176,
        0.9959525465965271
      ],
      "min": [
        -0.99938046932220459,
        -0.99969452619552612,
        -0.99993026256561279
      ],
      "type": "VEC3"
    },
    {
      "bufferView": 3,
      "componentType": 5126,
      "count": 1894,
      "max": [
        0.9994889497756958,
        0.99980777502059937,
        0.99966931343078613,
        1
      ],
      "min": [
        -0.99990755319595337,
        -0.9984474778175354,
        -0.99996542930603027,
        -1
      ],
      "type": "VEC4"
    },
    {
      "bufferView": 1,
      "componentType": 5126,
      "count": 1894,
      "max": [
        0.96402901411056519,
        0.99000000953674316
      ],
      "min": [
        0.0099999997764825821,
        0.0099999997764825821
      ],
      "type": "VEC2"
    },
    {
      "bufferView": 0,
      "componentType": 5125,
      "count": 9144,
      "max": [
        1893
      ],
      "min": [
        0
      ],
      "type": "SCALAR"
    }
  ],
  "asset": {
    "extras": {
      "author": "Pedro Perim (https://sketchfab.com/PedroPerim)",
      "license": "CC-BY-SA-4.0 (http://creativecommons.org/licenses/by-sa/4.0/)",
      "source": "https://sketchfab.com/3d-models/boxing-glove-84424f446e7f4c3b8bf1c3204b581f28",
      "title": "Boxing Glove"
    },
    "generator": "Sketchfab-10.39.2",
    "version": "2.0"
  },
  "bufferViews": [
    {
      "buffer": 0,
      "byteLength": 36576,
      "byteOffset": 0,
      "name": "floatBufferViews",
      "target": 34963
    },
    {
      "buffer": 0,
      "byteLength": 15152,
      "byteOffset": 36576,
      "byteStride": 8,
      "name": "floatBufferViews",
      "target": 34962
    },
    {
      "buffer": 0,
      "byteLength": 45456,
      "byteOffset": 51728,
      "byteStride": 12,
      "name": "floatBufferViews",
      "target": 34962
    },
    {
      "buffer": 0,
      "byteLength": 30304,
      "byteOffset": 97184,
      "byteStride": 16,
      "name": "floatBufferViews",
      "target": 34962
    }
  ],
  "buffers": [
    {
      "byteLength": 127488,
      "uri": "scene.bin"
    }
  ],
  "images": [
    {
      "uri": "Glove_baseColor.png"
    },
    {
      "uri": "Glove_metallicRoughness.png"
    },
    {
      "uri": "Glove_normal.png"
    }
  ],
  "materials": [
    {
      "doubleSided": true,
      "name": "Glove",
      "normalTexture": {
        "index": 2,
        "scale": 1,
        "texCoord": 0
      },
      "occlusionTexture": {
        "index": 1,
        "strength": 1,
        "texCoord": 0
      },
      "pbrMetallicRoughness": {
        "baseColorFactor": [
          1,
          1,
          1,
          1
        ],
        "baseColorTexture": {
          "index": 0,
          "texCoord": 0
        },
        "metallicFactor": 0,
        "metallicRoughnessTexture": {
          "index": 1,
          "texCoord": 0
        },
        "roughnessFactor": 1
      }
    }
  ],
  "meshes": [
    {
      "primitives": [
        {
          "attributes": {
            "NORMAL": 1,
            "POSITION": 0,
            "TANGENT": 2,
            "TEXCOORD_0": 3
          },
          "indices": 4,
          "material": 0,
          "mode": 4
        }
      ]
    }
  ],
  "nodes": [
    {
      "children": [
        1
      ],
      "name": "RootNode (gltf orientation matrix)",
      "rotation": [
        -0.70710678118654746,
        -0,
        -0,
        0.70710678118654757
      ]
    },
    {
      "children": [
        2
      ],
      "matrix": [
        0.25,
        0,
        0,
        0,
        0,
        0.25,
        0,
        0,
        0,
        0,
        0.25,
        0,
        0,
        0,
        0,
        1
      ],
      "name": "RootNode (model correction matrix)"
    },
    {
      "children": [
        3
      ],
      "name": "boxeglove_model.obj.cleaner.materialmerger.gles"
    },
    {
      "mesh": 0,
      "name": ""
    }
  ],
  "samplers": [
    {
      "magFilter": 9729,
      "minFilter": 9987,
      "wrapS": 10497,
      "wrapT": 10497
    }
  ],
  "scene": 0,
  "scenes": [
    {
      "name": "OSG_Scene",
      "nodes": [
        0
      ]
    }
  ],
  "textures": [
    {
      "sampler": 0,
      "source": 0
    },
    {
      "sampler": 0,
      "source": 1
    },
    {
      "sampler": 0,
      "source": 2
    }
  ],
  "extras": {
    "description": "MetaData"
  }
}