{"extensionsUsed" : ["KHR_materials_pbrSpecularGlossiness"], "accessors" : [{"bufferView" : 0, "byteOffset" : 0, "componentType" : 5123, "count" : 4332, "type" : "SCALAR", "max" : [3998], "min" : [0]}, {"bufferView" : 1, "byteOffset" : 0, "componentType" : 5126, "count" : 3999, "type" : "VEC3", "max" : [14.419991493225098, 32.56220626831055, 14.232696533203125], "min" : [-14.419991493225098, -0.27445149421691895, -10.030095100402832], "name" : "POSITION"}, {"bufferView" : 1, "byteOffset" : 12, "componentType" : 5126, "count" : 3999, "type" : "VEC4", "max" : [0.9999856948852539, 1, 0.9998331069946289, 0], "min" : [-0.9999856948852539, -0.9997822046279907, -0.9997938871383667, 0], "name" : "TANGENT"}, {"bufferView" : 1, "byteOffset" : 28, "componentType" : 5126, "count" : 3999, "type" : "VEC3", "max" : [0.9992086887359619, 0.99974125623703, 0.9991750121116638], "min" : [-0.9992086887359619, -0.9083907604217529, -0.9997906684875488], "name" : "NORMAL"}, {"bufferView" : 1, "byteOffset" : 40, "componentType" : 5126, "count" : 3999, "type" : "VEC2", "max" : [1.0018420219421387, 0.9953353404998779], "min" : [0.1554190069437027, 0.023824989795684814], "name" : "TEXCOORD_0"}], "asset" : {"generator" : "Aspose.3D 21.11", "version" : "2.0"}, "buffers" : [{"uri" : "data:application/octet-stream;base64,", "byteLength" : 216608}], "bufferViews" : [{"buffer" : 0, "byteOffset" : 0, "byteLength" : 8664, "target" : 34963}, {"buffer" : 0, "byteOffset" : 8668, "byteLength" : 207936, "byteStride" : 48, "target" : 34962}], "images" : [{"uri" : "data:image/png;base64,"}], "materials" : [{"name" : "", "extensions" : {"KHR_materials_pbrSpecularGlossiness" : {"diffuseFactor" : [1, 1, 1, 1], "diffuseTexture" : {"index" : 0, "texCoord" : 0}, "specularFactor" : [0, 0, 0], "glossinessFactor" : 0}}, "pbrMetallicRoughness" : {"baseColorFactor" : [1, 1, 1, 1], "metallicFactor" : 1, "roughnessFactor" : 1}, "emissiveFactor" : [0, 0, 0], "alphaMode" : "OPAQUE", "doubleSided" : true}], "meshes" : [{"primitives" : [{"attributes" : {"POSITION" : 1, "TANGENT" : 2, "NORMAL" : 3, "TEXCOORD_0" : 4}, "indices" : 0, "material" : 0, "mode" : 4}]}], "nodes" : [{"mesh" : 0, "name" : "Boots_Mesh.2"}, {"children" : [0], "name" : "Female_Boxer_Group.1"}, {"children" : [1], "matrix" : [0.009999999776482582, 0, 0, 0, 0, 0.009999999776482582, 0, 0, 0, 0, 0.009999999776482582, 0, 0, 0, 0, 1], "name" : "RootNode.0"}], "samplers" : [{"magFilter" : 9729, "minFilter" : 9985, "wrapS" : 10497, "wrapT" : 10497}], "scene" : 0, "scenes" : [{"nodes" : [2]}], "textures" : [{"sampler" : 0, "source" : 0}]}