{
  "accessors": [
    {
      "bufferView": 2,
      "componentType": 5126,
      "count": 65534,
      "max": [
        11.653205871582031,
        3.7069358825683594,
        5.1057448387146
      ],
      "min": [
        -1.9314730167388916,
        -3.474802017211914,
        -2.537554979324341
      ],
      "type": "VEC3"
    },
    {
      "bufferView": 2,
      "byteOffset": 786408,
      "componentType": 5126,
      "count": 65534,
      "max": [
        0.9999414682388306,
        0.9999573230743408,
        0.9998931884765625
      ],
      "min": [
        -0.9999662637710571,
        -0.9998903274536133,
        -0.9999865293502808
      ],
      "type": "VEC3"
    },
    {
      "bufferView": 1,
      "componentType": 5126,
      "count": 65534,
      "max": [
        0.9958999752998352,
        0.9993000030517578
      ],
      "min": [
        0.0024999999441206455,
        0.004100000020116568
      ],
      "type": "VEC2"
    },
    {
      "bufferView": 0,
      "componentType": 5125,
      "count": 70365,
      "type": "SCALAR"
    },
    {
      "bufferView": 2,
      "byteOffset": 1572816,
      "componentType": 5126,
      "count": 65534,
      "max": [
        9.360647201538086,
        3.7069358825683594,
        4.799503803253174
      ],
      "min": [
        -8.908851623535156,
        -3.474802017211914,
        -2.537554979324341
      ],
      "type": "VEC3"
    },
    {
      "bufferView": 2,
      "byteOffset": 2359224,
      "componentType": 5126,
      "count": 65534,
      "max": [
        0.9992284774780273,
        0.999987006187439,
        0.9999690055847168
      ],
      "min": [
        -0.9999406337738037,
        -0.9999762773513794,
        -0.9999890327453613
      ],
      "type": "VEC3"
    },
    {
      "bufferView": 1,
      "byteOffset": 524272,
      "componentType": 5126,
      "count": 65534,
      "max": [
        0.9944000244140625,
        0.9993000030517578
      ],
      "min": [
        0.0038999998942017555,
        0.0032999999821186066
      ],
      "type": "VEC2"
    },
    {
      "bufferView": 0,
      "byteOffset": 281460,
      "componentType": 5125,
      "count": 68403,
      "type": "SCALAR"
    },
    {
      "bufferView": 2,
      "byteOffset": 3145632,
      "componentType": 5126,
      "count": 39563,
      "max": [
        -4.182249069213867,
        1.873703956604004,
        3.3074750900268555
      ],
      "min": [
        -8.921157836914063,
        -2.734410047531128,
        -2.2238879203796387
      ],
      "type": "VEC3"
    },
    {
      "bufferView": 2,
      "byteOffset": 3620388,
      "componentType": 5126,
      "count": 39563,
      "max": [
        0.9999614953994751,
        0.9999973773956299,
        0.9999902248382568
      ],
      "min": [
        -0.9999159574508667,
        -0.999992847442627,
        -0.9999897480010986
      ],
      "type": "VEC3"
    },
    {
      "bufferView": 1,
      "byteOffset": 1048544,
      "componentType": 5126,
      "count": 39563,
      "max": [
        0.994700014591217,
        0.9993000030517578
      ],
      "min": [
        0.0038999998942017555,
        0.004100000020116568
      ],
      "type": "VEC2"
    },
    {
      "bufferView": 0,
      "byteOffset": 555072,
      "componentType": 5125,
      "count": 41610,
      "type": "SCALAR"
    }
  ],
  "asset": {
    "extras": {
      "author": "urheilumuseo (https://sketchfab.com/urheilumuseo)",
      "license": "CC-BY-4.0 (http://creativecommons.org/licenses/by/4.0/)",
      "source": "https://sketchfab.com/3d-models/cycling-shoe-made-by-karhu-234c84e472a84a01809a49a3f3519a6e",
      "title": "Cycling Shoe Made by Karhu"
    },
    "generator": "Sketchfab-11.25.0",
    "version": "2.0"
  },
  "bufferViews": [
    {
      "buffer": 0,
      "byteLength": 721512,
      "name": "floatBufferViews",
      "target": 34963
    },
    {
      "buffer": 0,
      "byteLength": 1365048,
      "byteOffset": 721512,
      "byteStride": 8,
      "name": "floatBufferViews",
      "target": 34962
    },
    {
      "buffer": 0,
      "byteLength": 4095144,
      "byteOffset": 2086560,
      "byteStride": 12,
      "name": "floatBufferViews",
      "target": 34962
    }
  ],
  "buffers": [
    {
      "byteLength": 6181704,
      "uri": "scene.bin"
    }
  ],
  "images": [
    {
      "uri": "textures/pyorailykenka_1572-83ab_baseColor.jpeg"
    }
  ],
  "materials": [
    {
      "doubleSided": true,
      "name": "pyorailykenka_1572-83ab",
      "pbrMetallicRoughness": {
        "baseColorTexture": {
          "index": 0
        },
        "metallicFactor": 0.0
      }
    }
  ],
  "meshes": [
    {
      "name": "Object_0",
      "primitives": [
        {
          "attributes": {
            "NORMAL": 1,
            "POSITION": 0,
            "TEXCOORD_0": 2
          },
          "indices": 3,
          "material": 0,
          "mode": 4
        }
      ]
    },
    {
      "name": "Object_1",
      "primitives": [
        {
          "attributes": {
            "NORMAL": 5,
            "POSITION": 4,
            "TEXCOORD_0": 6
          },
          "indices": 7,
          "material": 0,
          "mode": 4
        }
      ]
    },
    {
      "name": "Object_2",
      "primitives": [
        {
          "attributes": {
            "NORMAL": 9,
            "POSITION": 8,
            "TEXCOORD_0": 10
          },
          "indices": 11,
          "material": 0,
          "mode": 4
        }
      ]
    }
  ],
  "nodes": [
    {
      "children": [
        1
      ],
      "matrix": [
        1.0,
        0.0,
        0.0,
        0.0,
        0.0,
        2.220446049250313e-16,
        -1.0,
        0.0,
        0.0,
        1.0,
        2.220446049250313e-16,
        0.0,
        0.0,
        0.0,
        0.0,
        1.0
      ],
      "name": "Sketchfab_model"
    },
    {
      "children": [
        2,
        3,
        4
      ],
      "name": "pyorailykenka_1572-83ab.obj.cleaner.materialmerger.gles"
    },
    {
      "mesh": 0,
      "name": "Object_2"
    },
    {
      "mesh": 1,
      "name": "Object_3"
    },
    {
      "mesh": 2,
      "name": "Object_4"
    }
  ],
  "samplers": [
    {
      "magFilter": 9729,
      "minFilter": 9987,
      "wrapS": 10497,
      "wrapT": 10497
    }
  ],
  "scene": 0,
  "scenes": [
    {
      "name": "Sketchfab_Scene",
      "nodes": [
        0
      ]
    }
  ],
  "textures": [
    {
      "sampler": 0,
      "source": 0
    }
  ]
}
